<svg xmlns="http://www.w3.org/2000/svg" width="158" height="44" viewBox="0 0 158 44">
    <g fill="none" fill-rule="evenodd">
        <g>
            <g>
                <g>
                    <g>
                        <g fill="#2ED473">
                            <path d="M33.344 0H4.434C1.985 0 0 1.971 0 4.403v28.701c0 2.438 1.99 4.414 4.446 4.414h10.012l3.533 4.979c.222.268.54.403.859.403.315 0 .63-.132.852-.396l3.648-4.986h9.994c2.455 0 4.446-1.976 4.446-4.414V4.414C37.79 1.976 35.8 0 33.344 0m0 3.31c.613 0 1.111.495 1.111 1.104v28.69c0 .609-.498 1.104-1.111 1.104H21.65l-.998 1.365-1.775 2.425-1.693-2.386-.996-1.404H4.446c-.613 0-1.112-.495-1.112-1.104V4.403c0-.603.494-1.092 1.1-1.092h28.91" transform="translate(-54 -69) translate(40 65) translate(13 3) translate(1.268 1.256)"/>
                            <path d="M18.746 12.681c-.68 0-1.27.096-1.77.287-.5.19-.887.423-1.163.699.02.127.053.276.095.445.043.148.075.33.096.54.021.213.032.446.032.7v11.004h-4.145V15.593c0-.463-.027-.89-.08-1.282-.053-.39-.154-.728-.303-1.013-.149-.285-.372-.5-.67-.648-.297-.148-.416-.222-.883-.222h-.583v-.95h3.157c.722 0 1.29.09 1.706.27.414.179.738.48.972.902.191-.17.42-.343.686-.523.265-.179.584-.337.956-.475.372-.137.802-.253 1.291-.348.49-.095 1.063-.142 1.722-.142 1.998 0 3.508.459 4.528 1.377 1.02.918 1.53 2.4 1.53 4.447v9.37h-4.145v-9.445c0-1.548-.287-2.64-.86-3.276-.575-.636-1.297-.954-2.169-.954" transform="translate(-54 -69) translate(40 65) translate(13 3) translate(1.268 1.256)"/>
                        </g>
                        <g fill="#000">
                            <path d="M4.572 8.075l.117 2.042c.637-.752 1.402-1.334 2.296-1.748.894-.414 1.888-.62 2.984-.62.871 0 1.661.116 2.371.35.71.235 1.316.613 1.819 1.136.502.522.89 1.203 1.165 2.041.273.839.41 1.857.41 3.055v11.417H11.66v-11.45c0-.61-.07-1.124-.21-1.544-.14-.419-.343-.759-.61-1.02-.269-.262-.602-.45-.998-.564-.397-.114-.852-.172-1.366-.172-.838 0-1.567.197-2.187.589-.62.392-1.115.92-1.484 1.584v12.577H.734V8.075h3.838zM23.418 22.62c.453 0 .875-.059 1.268-.177.393-.117.748-.272 1.066-.465.317-.192.594-.414.831-.666.237-.25.425-.505.565-.762v-3.272h-2.115c-1.453 0-2.546.251-3.278.754-.732.502-1.098 1.214-1.098 2.133 0 .353.06.68.178.979.118.3.296.559.533.778.237.22.525.39.864.513.339.123.734.185 1.186.185zm4.311 2.807c-.107-.203-.196-.443-.266-.722-.07-.278-.132-.577-.186-.898-.258.267-.546.519-.863.754-.318.235-.668.441-1.05.617-.382.177-.797.316-1.243.418-.447.101-.923.152-1.43.152-.871 0-1.673-.131-2.405-.393-.732-.262-1.359-.626-1.881-1.091-.522-.465-.931-1.013-1.227-1.644-.296-.631-.444-1.316-.444-2.054 0-.93.178-1.754.533-2.47.355-.717.872-1.316 1.55-1.797.678-.481 1.51-.848 2.494-1.099.985-.251 2.107-.377 3.367-.377h2.47v-1.139c0-.898-.253-1.618-.759-2.158-.506-.54-1.275-.81-2.309-.81-.462 0-.882.062-1.259.184-.377.124-.697.29-.96.498-.264.208-.469.457-.614.746-.145.289-.218.599-.218.93h-3.924c0-.684.17-1.344.509-1.981.339-.636.82-1.203 1.445-1.7.624-.498 1.38-.896 2.268-1.196.889-.299 1.881-.449 2.98-.449.979 0 1.883.126 2.712.377.829.252 1.545.626 2.148 1.123.602.498 1.07 1.118 1.404 1.861.334.744.5 1.612.5 2.607v7.7c0 1.562.221 2.808.663 3.738v.273h-4.005zM36.572 8.075l.117 2.042c.637-.752 1.402-1.334 2.296-1.748.894-.414 1.888-.62 2.984-.62.871 0 1.661.116 2.371.35.71.235 1.316.613 1.818 1.136.503.522.891 1.203 1.165 2.041.274.839.41 1.857.41 3.055v11.417h-4.072v-11.45c0-.61-.07-1.124-.21-1.544-.14-.419-.343-.759-.61-1.02-.269-.262-.602-.45-.998-.564-.397-.114-.852-.172-1.366-.172-.838 0-1.567.197-2.187.589-.62.392-1.115.92-1.483 1.584v12.577h-4.073V8.075h3.838zM52.579 16.943c0 .772.07 1.497.214 2.178.142.68.369 1.277.68 1.791.31.514.71.919 1.195 1.213.484.295 1.075.442 1.772.442.864 0 1.574-.195 2.128-.587.554-.39.994-.907 1.321-1.55v-7.423c-.327-.642-.77-1.151-1.33-1.526-.558-.375-1.255-.563-2.088-.563-.696 0-1.29.15-1.78.45-.49.3-.891.707-1.202 1.221-.312.515-.541 1.117-.689 1.808-.148.69-.221 1.427-.221 2.21v.336zm-3.845-.337c0-1.318.155-2.522.467-3.615.31-1.092.76-2.03 1.345-2.812.585-.781 1.294-1.386 2.128-1.815.833-.429 1.772-.643 2.816-.643.95 0 1.786.166 2.508.498.723.333 1.353.81 1.891 1.43V.75h3.845v24.678h-3.481l-.19-1.8c-.549.675-1.2 1.197-1.954 1.567-.755.37-1.638.554-2.65.554-1.034 0-1.965-.222-2.793-.667-.828-.444-1.532-1.057-2.112-1.84-.58-.781-1.029-1.71-1.345-2.787-.317-1.076-.475-2.247-.475-3.51v-.338zM76.897 16.574c0-.76-.06-1.483-.182-2.169-.12-.685-.329-1.285-.624-1.8-.294-.514-.686-.923-1.176-1.229-.49-.305-1.103-.458-1.84-.458-.894 0-1.625.201-2.194.603-.568.402-1.005.94-1.31 1.615V20.3c.305.675.744 1.221 1.318 1.64.574.417 1.313.626 2.218.626.705 0 1.3-.147 1.785-.442.484-.294.876-.696 1.176-1.205.3-.509.513-1.106.64-1.792.126-.685.189-1.424.189-2.217v-.337zm3.837.337c0 1.286-.145 2.47-.434 3.551-.29 1.082-.714 2.014-1.272 2.796s-1.252 1.392-2.084 1.831c-.831.44-1.79.66-2.873.66-1.042 0-1.948-.191-2.716-.571-.769-.38-1.421-.924-1.958-1.631l-.19 1.88h-3.473V.748h3.837v8.966c.537-.643 1.17-1.136 1.902-1.478.732-.344 1.587-.515 2.566-.515 1.105 0 2.074.217 2.905.651.832.434 1.529 1.042 2.092 1.824.563.781.987 1.716 1.271 2.803.284 1.087.427 2.28.427 3.575v.337zM85.599 16.925c0 .78.08 1.518.238 2.213.16.696.408 1.303.748 1.821.34.52.771.928 1.296 1.228.525.3 1.147.449 1.869.449.71 0 1.328-.15 1.853-.45.524-.299.954-.708 1.288-1.227.334-.518.583-1.125.747-1.82.165-.696.247-1.433.247-2.214v-.337c0-.77-.082-1.5-.247-2.19-.164-.69-.416-1.294-.755-1.813-.34-.518-.771-.933-1.296-1.243-.525-.31-1.148-.465-1.869-.465-.721 0-1.339.155-1.853.465-.514.31-.94.725-1.28 1.243-.34.52-.589 1.123-.748 1.813-.159.69-.238 1.42-.238 2.19v.337zm-3.865-.337c0-1.262.183-2.43.548-3.505.367-1.075.891-2.008 1.575-2.8.684-.792 1.52-1.412 2.505-1.861.986-.45 2.105-.674 3.356-.674 1.262 0 2.39.225 3.387.674.997.45 1.837 1.07 2.521 1.86.684.793 1.206 1.726 1.567 2.8.36 1.075.54 2.244.54 3.506v.337c0 1.262-.18 2.433-.54 3.513-.36 1.08-.883 2.013-1.567 2.8-.684.786-1.521 1.4-2.513 1.844-.99.444-2.112.666-3.363.666-1.262 0-2.389-.222-3.38-.666-.991-.443-1.829-1.058-2.513-1.845-.684-.786-1.208-1.719-1.575-2.8-.365-1.079-.548-2.25-.548-3.512v-.337z" transform="translate(-54 -69) translate(40 65) translate(13 3) translate(46.266 5.252)"/>
                            <path d="M104.693 13.67L108.094 7.748 112.552 7.748 107.087 16.615 112.734 25.748 108.308 25.748 104.742 19.593 101.192 25.748 96.734 25.748 102.381 16.615 96.932 7.748 101.357 7.748z" transform="translate(-54 -69) translate(40 65) translate(13 3) translate(46.266 5.252)"/>
                        </g>
                    </g>
                </g>
            </g>
        </g>
    </g>
</svg>
