<?xml version="1.0" encoding="UTF-8"?>
<svg width="18px" height="18px" viewBox="0 0 18 18" version="1.1" xmlns="http://www.w3.org/2000/svg" xmlns:xlink="http://www.w3.org/1999/xlink">
    <!-- Generator: Sketch 59.1 (86144) - https://sketch.com -->
    <title>ic_Api_22dp</title>
    <desc>Created with Sketch.</desc>
    <g id="Page-1" stroke="none" stroke-width="1" fill="none" fill-rule="evenodd">
        <g id="Menus--" transform="translate(-53.000000, -380.000000)" fill="#4F566B" fill-rule="nonzero">
            <g id="Group-3" transform="translate(53.000000, 380.000000)">
                <g id="api" transform="translate(0.818182, 1.636364)">
                    <path d="M8.18181818,11.7202719 C9.59541753,11.7136475 10.8897415,10.9267424 11.5462403,9.67481737 L4.8173961,9.67481737 C5.47389491,10.9267424 6.76821883,11.7136475 8.18181818,11.7202719 Z" id="Shape"></path>
                    <path d="M9.35064935,4.99949269 C9.35032719,4.67686242 9.08886404,4.41539927 8.76623377,4.41507711 L7.88961039,4.41507711 L7.88961039,5.58390828 L8.76623377,5.58390828 C9.08886404,5.58358612 9.35032719,5.32212297 9.35064935,4.99949269 Z" id="Shape"></path>
                    <polygon id="Shape" points="5.55194805 5.04712256 5.27551948 5.87611607 5.82837662 5.87611607"></polygon>
                    <path d="M3.21428571,9.67481737 C2.92069795,9.67378345 2.62822774,9.63858898 2.34277597,9.56994399 L1.44058442,9.94163231 L2.16423701,11.696457 L3.39770455,11.1870804 C3.52412433,11.1350118 3.6697488,11.1774856 3.7483539,11.2893531 C4.1085739,11.8038789 4.55610822,12.2513539 5.07068182,12.6115057 C5.18300419,12.690009 5.2256165,12.8360649 5.17312987,12.9626518 L4.66404545,14.1934018 L6.41758442,14.9203563 L6.92710714,13.6888758 C6.9795275,13.5621176 7.11306146,13.4888842 7.24812662,13.5128206 C7.86552052,13.6228203 8.49757386,13.6219496 9.11466234,13.5102492 C9.24978287,13.4861492 9.38352036,13.5590969 9.43641234,13.6857492 L9.94862338,14.9193336 L11.699737,14.1932557 L11.1903604,12.9594959 C11.1379764,12.8325291 11.1810879,12.6862175 11.2939481,12.6079407 C11.808691,12.2496037 12.2560296,11.8030862 12.6153117,11.2890024 C12.6938647,11.1770479 12.8396508,11.134697 12.965961,11.1871388 L14.1990779,11.6973628 L14.9266753,9.94283036 L14.2706104,9.66973295 C14.2376786,9.67090179 14.2053896,9.67472971 14.1721948,9.67472971 L12.193539,9.67472971 C11.4989417,11.2717017 9.92330749,12.3046057 8.18181818,12.3046057 C6.44032888,12.3046057 4.8646947,11.2717017 4.1700974,9.67472971 L3.21428571,9.67481737 Z" id="Shape"></path>
                    <path d="M3.21428571,9.09040179 L14.1720779,9.09040179 C15.3824422,9.09040179 16.3636364,8.10920764 16.3636364,6.89884334 C16.3636364,5.68847905 15.3824422,4.7072849 14.1720779,4.7072849 L14.1428571,4.7072849 C14.0189894,4.70728157 13.9085824,4.62918051 13.8673344,4.51238231 C13.4739434,3.39670262 12.4159972,2.6535163 11.2330227,2.66183036 C11.204474,2.66183036 11.1761006,2.66197646 11.1476981,2.66396347 C11.0195038,2.6721198 10.9007818,2.59634057 10.8542045,2.47662906 C10.2922715,1.00307135 8.87818494,0.0300820529 7.30111871,0.0318578763 C5.72405245,0.0336385636 4.31216378,1.00981435 3.75355519,2.48463555 C3.70694265,2.60857988 3.58267944,2.68556643 3.45094481,2.67211607 C3.37228118,2.66471607 3.29329473,2.66128315 3.21428571,2.66183036 C1.43908473,2.66183036 0,4.1009151 0,5.87611607 C0,7.65131704 1.43908473,9.09040179 3.21428571,9.09040179 Z M10.2272727,3.83066153 L11.9805195,3.83066153 C12.1419014,3.83066153 12.2727273,3.96148743 12.2727273,4.12286932 C12.2727273,4.28425121 12.1419014,4.41507711 11.9805195,4.41507711 L11.3961039,4.41507711 L11.3961039,7.33715503 L11.9805195,7.33715503 C12.1419014,7.33715503 12.2727273,7.46798093 12.2727273,7.62936282 C12.2727273,7.79074472 12.1419014,7.92157062 11.9805195,7.92157062 L10.2272727,7.92157062 C10.0658908,7.92157062 9.93506494,7.79074472 9.93506494,7.62936282 C9.93506494,7.46798093 10.0658908,7.33715503 10.2272727,7.33715503 L10.8116883,7.33715503 L10.8116883,4.41507711 L10.2272727,4.41507711 C10.0658908,4.41507711 9.93506494,4.28425121 9.93506494,4.12286932 C9.93506494,3.96148743 10.0658908,3.83066153 10.2272727,3.83066153 Z M7.5974026,3.83066153 L8.76623377,3.83066153 C9.4117614,3.83066153 9.93506494,4.35396506 9.93506494,4.99949269 C9.93506494,5.64502032 9.4117614,6.16832386 8.76623377,6.16832386 L7.88961039,6.16832386 L7.88961039,7.62936282 C7.88961039,7.79074472 7.75878449,7.92157062 7.5974026,7.92157062 C7.4360207,7.92157062 7.30519481,7.79074472 7.30519481,7.62936282 L7.30519481,4.12286932 C7.30519481,3.96148743 7.4360207,3.83066153 7.5974026,3.83066153 Z M4.69031494,2.56937581 C5.33393182,0.638642045 6.94478571,0.616374916 7.01298701,0.616374916 C7.17436891,0.615980431 7.30551533,0.74648579 7.30591161,0.907867695 C7.3063061,1.0692496 7.17580072,1.20039601 7.01441883,1.2007914 C6.95775974,1.2016388 5.75012338,1.23801867 5.24475,2.7542849 C5.21171918,2.85332519 5.12836007,2.92722045 5.02607326,2.94813506 C4.92378642,2.96904965 4.81811169,2.93380619 4.74885573,2.85568051 C4.67959973,2.77755483 4.65728412,2.6684161 4.69031494,2.56937581 Z M4.10589935,7.53690828 L5.27473052,4.03041477 C5.2769513,4.02372321 5.2821526,4.01922321 5.28481169,4.01288231 C5.31643144,3.94309262 5.37237579,3.88720023 5.44219481,3.85564529 C5.44850649,3.85304464 5.45291883,3.84790179 5.45949351,3.84571023 C5.47037804,3.84368242 5.48137549,3.84231629 5.49242532,3.84161932 C5.53152711,3.83178173 5.57245666,3.83178173 5.61155844,3.84161932 C5.62257868,3.84230644 5.63354696,3.84366284 5.6444026,3.84568101 C5.65097727,3.84787256 5.65536039,3.8529862 5.66167208,3.85558685 C5.73145475,3.88721899 5.7873875,3.94309981 5.81908442,4.01285308 C5.82174351,4.01925244 5.82694481,4.02375244 5.82916558,4.03038555 L6.99799675,7.53687906 C7.04905799,7.68998206 6.96633677,7.8554899 6.81323377,7.90655114 C6.66013076,7.95761237 6.49462293,7.87489115 6.44356169,7.72178815 L6.02313312,6.46053166 L5.08076299,6.46053166 L4.66033442,7.72181737 C4.60927318,7.87492037 4.44376534,7.95764159 4.29066234,7.90658036 C4.13755933,7.85551912 4.05483811,7.69001128 4.10589935,7.53690828 L4.10589935,7.53690828 Z M2.09296753,3.49921023 C2.18737264,3.45460713 2.29840204,3.46375669 2.38423201,3.52321235 C2.47006199,3.58266805 2.51765293,3.6833971 2.50907779,3.78745586 C2.50050265,3.89151465 2.4370642,3.98309415 2.34265909,4.02769724 C1.62824655,4.36657217 1.17175139,5.08541198 1.16883117,5.87611607 C1.16703601,6.34132818 1.32680367,6.79273454 1.6208474,7.15323945 C1.68894358,7.23410348 1.70805251,7.34544225 1.67081623,7.44438436 C1.63357996,7.54332648 1.54580599,7.6144405 1.44129203,7.63034374 C1.33677806,7.64624697 1.23182452,7.60445906 1.16684416,7.52107062 C0.660608404,6.89441032 0.470507645,6.06983713 0.651282218,5.28479042 C0.832056791,4.49974373 1.36364272,3.84135505 2.09296753,3.49921023 L2.09296753,3.49921023 Z" id="Shape"></path>
                </g>
            </g>
        </g>
    </g>
</svg>