<?xml version="1.0" encoding="UTF-8"?>
<svg width="18px" height="18px" viewBox="0 0 18 18" version="1.1" xmlns="http://www.w3.org/2000/svg" xmlns:xlink="http://www.w3.org/1999/xlink">
    <!-- Generator: Sketch 59.1 (86144) - https://sketch.com -->
    <title>ic_error_22dp</title>
    <desc>Created with Sketch.</desc>
    <g id="Page-1" stroke="none" stroke-width="1" fill="none" fill-rule="evenodd">
        <g id="Menus--" transform="translate(-53.000000, -557.000000)" fill="#4F566B" fill-rule="nonzero">
            <g id="Group" transform="translate(53.000000, 557.000000)">
                <g id="warning" transform="translate(1.636364, 1.636364)">
                    <path d="M14.4283839,10.7129605 L9.22016442,1.07721328 C8.8270728,0.412182588 8.13281996,0.0150026484 7.36308984,0.0150026484 C6.59335973,0.0150026484 5.89910689,0.412182588 5.50601527,1.07721328 C5.50305256,1.08230088 5.50055007,1.08738849 5.49758736,1.09247609 L0.306683949,10.6977266 C-0.0948355824,11.3767771 -0.102429332,12.1922679 0.286002486,12.8789498 C0.675325994,13.5660364 1.37671236,13.9759064 2.16332706,13.9759064 L12.5340884,13.9759064 C13.3207031,13.9759064 14.0509112,13.5660364 14.440206,12.8789498 C14.8286378,12.1922968 14.8210728,11.3767482 14.4283839,10.7129605 Z M6.49930078,4.42702427 C6.49930078,3.94757547 6.88603551,3.55895195 7.36308984,3.55895195 C7.84017294,3.55895195 8.22687891,3.94760438 8.22687891,4.42702427 L8.22687891,7.89934243 C8.22687891,8.37873341 7.84014418,8.76741474 7.36308984,8.76741474 C6.88603551,8.76741474 6.49930078,8.37870451 6.49930078,7.89934243 L6.49930078,4.42702427 L6.49930078,4.42702427 Z M7.36308984,12.2397618 C6.64861577,12.2397618 6.06737749,11.6556703 6.06737749,10.9376244 C6.06737749,10.2196075 6.648587,9.63551597 7.36308984,9.63551597 C8.07756392,9.63551597 8.65877344,10.2196075 8.65877344,10.9376244 C8.6588022,11.6556414 8.07759268,12.2397618 7.36308984,12.2397618 Z" id="Shape"></path>
                </g>
            </g>
        </g>
    </g>
</svg>