<?xml version="1.0" encoding="UTF-8"?>
<svg width="18px" height="18px" viewBox="0 0 18 18" version="1.1" xmlns="http://www.w3.org/2000/svg" xmlns:xlink="http://www.w3.org/1999/xlink">
    <!-- Generator: Sketch 59.1 (86144) - https://sketch.com -->
    <title>ic_favourite_22dp</title>
    <desc>Created with Sketch.</desc>
    <g id="Page-1" stroke="none" stroke-width="1" fill="none" fill-rule="evenodd">
        <g id="Menus--" transform="translate(-53.000000, -336.000000)" fill="#4F566B" fill-rule="nonzero">
            <g id="Group-3" transform="translate(53.000000, 336.000000)">
                <g id="favourite" transform="translate(1.636364, 2.454545)">
                    <path d="M14.6342297,5.30064115 C14.4576172,4.75926316 13.9755215,4.40945455 13.406067,4.40945455 L9.7337799,4.40945455 L8.57735885,0.897588517 C8.39959809,0.357732057 7.91850718,0.00976076555 7.350689,0.00976076555 C7.34888038,0.00976076555 7.34701435,0.00976076555 7.34520574,0.00976076555 C6.7750622,0.0120287081 6.29417225,0.36430622 6.12011483,0.907263158 L4.99739713,4.40945455 L1.29453589,4.40945455 C0.723645933,4.40945455 0.241177033,4.76044019 0.0654258373,5.30359809 C-0.110354067,5.84675598 0.0750430622,6.41385646 0.537760766,6.74830622 L3.53377033,8.9138756 L2.38056459,12.4160096 C2.20208612,12.9580191 2.38438278,13.5259234 2.84497608,13.8627847 C3.07630622,14.0319904 3.34182775,14.116622 3.60752153,14.116622 C3.87080383,14.116622 4.13422967,14.0334545 4.36441148,13.8670622 L7.36561722,11.6977895 L10.3311675,13.8634163 C10.791244,14.1994163 11.3870813,14.2010239 11.8490526,13.8676364 C12.3110239,13.5342488 12.4971388,12.9682679 12.3232536,12.4257129 L11.197378,8.9138756 L14.1679234,6.74460287 C14.6278278,6.40877512 14.8108708,5.84199043 14.6342297,5.30064115 Z" id="Path"></path>
                </g>
            </g>
        </g>
    </g>
</svg>