<?xml version="1.0" encoding="UTF-8"?>
<svg width="18px" height="18px" viewBox="0 0 18 18" version="1.1" xmlns="http://www.w3.org/2000/svg" xmlns:xlink="http://www.w3.org/1999/xlink">
    <!-- Generator: Sketch 59.1 (86144) - https://sketch.com -->
    <title>ic_home_22dp</title>
    <desc>Created with Sketch.</desc>
    <g id="Page-1" stroke="none" stroke-width="1" fill="none" fill-rule="evenodd">
        <g id="Menus--" transform="translate(-53.000000, -166.000000)" fill="#4F566B" fill-rule="nonzero">
            <g id="Group-3" transform="translate(53.000000, 166.000000)">
                <g id="home" transform="translate(1.000000, 2.000000)">
                    <path d="M8.18709563,2.65427391 L2.3725856,7.44772137 C2.3725856,7.45448642 2.37088548,7.4644392 2.36748524,7.47800472 C2.36415584,7.49146399 2.36238489,7.50123967 2.36238489,7.50818182 L2.36238489,12.3620543 C2.36238489,12.5373081 2.42645809,12.6891854 2.55456907,12.8170838 C2.68264463,12.9450531 2.83430933,13.0094451 3.00959858,13.0094451 L6.8925974,13.0094451 L6.8925974,9.12623377 L9.48162928,9.12623377 L9.48162928,13.0095868 L13.3645927,13.0095868 C13.5398465,13.0095868 13.6917237,12.9453365 13.8196222,12.8170838 C13.9477332,12.689327 14.0120189,12.5373436 14.0120189,12.3620543 L14.0120189,7.50818182 C14.0120189,7.48126328 14.0083353,7.4609327 14.0018182,7.44772137 L8.18709563,2.65427391 Z" id="Path"></path>
                    <path d="M16.226281,6.35553719 L14.0118064,4.51508855 L14.0118064,0.389220779 C14.0118064,0.294899646 13.9814876,0.217331759 13.9206375,0.156623377 C13.8602834,0.0959858323 13.7827155,0.0656670602 13.6881818,0.0656670602 L11.746647,0.0656670602 C11.6522196,0.0656670602 11.5746871,0.0959858323 11.5139433,0.156623377 C11.4533412,0.217331759 11.4230579,0.294935065 11.4230579,0.389220779 L11.4230579,2.3611098 L8.95569067,0.298122786 C8.74020071,0.12283353 8.48397875,0.0352066116 8.18730815,0.0352066116 C7.89067296,0.0352066116 7.63448642,0.12283353 7.41878394,0.298122786 L0.147768595,6.35553719 C0.0803659976,6.40937426 0.0434238489,6.48184179 0.0365525384,6.57286895 C0.029716647,6.66382527 0.053270366,6.74327037 0.107284534,6.81063754 L0.734238489,7.55897285 C0.788252656,7.61961039 0.858949233,7.65669421 0.94661157,7.67025974 C1.02754427,7.67706021 1.10847698,7.65340024 1.18940968,7.59949233 L8.18709563,1.76447462 L15.1848524,7.59945691 C15.238902,7.64649351 15.3095632,7.66997639 15.3972255,7.66997639 L15.4276151,7.66997639 C15.5151358,7.6566588 15.5856907,7.61932704 15.6399882,7.55883117 L16.267013,6.81060213 C16.3209209,6.74309327 16.3445455,6.66378985 16.3375325,6.57272727 C16.3306257,6.48194805 16.2935419,6.40948052 16.226281,6.35553719 Z" id="Path"></path>
                </g>
            </g>
        </g>
    </g>
</svg>