<?xml version="1.0" encoding="UTF-8"?>
<svg width="18px" height="18px" viewBox="0 0 18 18" version="1.1" xmlns="http://www.w3.org/2000/svg" xmlns:xlink="http://www.w3.org/1999/xlink">
    <!-- Generator: Sketch 59.1 (86144) - https://sketch.com -->
    <title>ic_info_22dp</title>
    <desc>Created with Sketch.</desc>
    <g id="Page-1" stroke="none" stroke-width="1" fill="none" fill-rule="evenodd">
        <g id="Menus--" transform="translate(-53.000000, -252.000000)" fill="#4F566B" fill-rule="nonzero">
            <g id="Group-3" transform="translate(53.000000, 252.000000)">
                <g id="information-button" transform="translate(1.636364, 1.636364)">
                    <path d="M7.24827273,0 C3.24552273,0 0,3.24552273 0,7.24827273 C0,11.2510227 3.24552273,14.4971591 7.24827273,14.4971591 C11.2510227,14.4971591 14.4971591,11.2510227 14.4971591,7.24827273 C14.4971591,3.24552273 11.2510227,0 7.24827273,0 Z M8.75720455,11.2338409 C8.38411364,11.3811136 8.08711364,11.4927955 7.86436364,11.5701136 C7.64222727,11.6474318 7.38388636,11.6860909 7.08995455,11.6860909 C6.63831818,11.6860909 6.28670455,11.5756364 6.03634091,11.3553409 C5.78597727,11.1350455 5.66140909,10.8558409 5.66140909,10.5165 C5.66140909,10.3845682 5.67061364,10.2495682 5.68902273,10.1121136 C5.70804545,9.97465909 5.73811364,9.82002273 5.77922727,9.64636364 L6.24620455,7.99690909 C6.28731818,7.83859091 6.32290909,7.68825 6.35113636,7.54834091 C6.37936364,7.40720455 6.39286364,7.27772727 6.39286364,7.15990909 C6.39286364,6.95004545 6.34929545,6.80277273 6.26277273,6.71993182 C6.17502273,6.63709091 6.00995455,6.59659091 5.76388636,6.59659091 C5.64361364,6.59659091 5.51965909,6.61438636 5.39263636,6.65181818 C5.26684091,6.69047727 5.15761364,6.72545455 5.06802273,6.75981818 L5.19136364,6.25172727 C5.49695455,6.12715909 5.78965909,6.02038636 6.06886364,5.93202273 C6.34806818,5.84243182 6.61193182,5.79825 6.86045455,5.79825 C7.30902273,5.79825 7.65511364,5.90747727 7.89872727,6.12347727 C8.14111364,6.34009091 8.26322727,6.62175 8.26322727,6.96784091 C8.26322727,7.03963636 8.25463636,7.16604545 8.23806818,7.34645455 C8.2215,7.52747727 8.19020455,7.69254545 8.14479545,7.84411364 L7.68027273,9.48865909 C7.64222727,9.62059091 7.60847727,9.77154545 7.57779545,9.94029545 C7.54772727,10.1090455 7.533,10.2379091 7.533,10.3244318 C7.533,10.5428864 7.58147727,10.692 7.67965909,10.7711591 C7.77661364,10.8503182 7.94659091,10.8902045 8.18713636,10.8902045 C8.30065909,10.8902045 8.42768182,10.8699545 8.57127273,10.8306818 C8.71363636,10.7914091 8.81672727,10.7564318 8.88177273,10.7263636 L8.75720455,11.2338409 Z M8.67497727,4.55870455 C8.45836364,4.75997727 8.19756818,4.86061364 7.89259091,4.86061364 C7.58822727,4.86061364 7.32559091,4.75997727 7.10713636,4.55870455 C6.88990909,4.35743182 6.78006818,4.11259091 6.78006818,3.82663636 C6.78006818,3.54129545 6.89052273,3.29584091 7.10713636,3.09272727 C7.32559091,2.889 7.58822727,2.78775 7.89259091,2.78775 C8.19756818,2.78775 8.45897727,2.889 8.67497727,3.09272727 C8.89159091,3.29584091 9.00020455,3.54129545 9.00020455,3.82663636 C9.00020455,4.11320455 8.89159091,4.35743182 8.67497727,4.55870455 Z" id="Shape"></path>
                </g>
            </g>
        </g>
    </g>
</svg>