<?xml version="1.0" encoding="UTF-8"?>
<svg width="18px" height="18px" viewBox="0 0 18 18" version="1.1" xmlns="http://www.w3.org/2000/svg" xmlns:xlink="http://www.w3.org/1999/xlink">
    <!-- Generator: Sketch 59.1 (86144) - https://sketch.com -->
    <title>ic_outcoming_22dp</title>
    <desc>Created with Sketch.</desc>
    <g id="Page-1" stroke="none" stroke-width="1" fill="none" fill-rule="evenodd">
        <g id="Menus--" transform="translate(-53.000000, -468.000000)" fill="#4F566B" fill-rule="nonzero">
            <g id="Group-3" transform="translate(53.000000, 468.000000)">
                <g id="files-and-folders" transform="translate(1.636364, 1.636364)">
                    <polygon id="Path" points="9.2054984 9.47015615 7.36245241 10.9665337 5.64510802 9.57223636 0.640260963 14.7249048 14.0797636 14.7249048"></polygon>
                    <polygon id="Path" points="9.87631123 8.92553583 14.7200246 14.1472781 14.7200246 4.99297861"></polygon>
                    <polygon id="Path" points="0.0048802139 4.99297861 0.0048802139 14.1415316 4.97311123 9.02663422"></polygon>
                    <polygon id="Path" points="9.69305775 4.35598075 9.69305775 7.28956684 5.03181818 7.28956684 5.03181818 4.35598075 0.588282353 4.35598075 7.36245241 9.85595294 14.1366225 4.35598075"></polygon>
                    <polygon id="Path" points="8.67823316 1.77206631 7.36245241 0 6.04667166 1.77206631 4.8401615 3.4521016 5.89402781 3.4521016 5.89402781 6.42735722 8.83081925 6.42735722 8.83081925 3.4521016 9.88474332 3.4521016"></polygon>
                </g>
            </g>
        </g>
    </g>
</svg>