<?xml version="1.0" encoding="UTF-8"?>
<svg width="18px" height="18px" viewBox="0 0 18 18" version="1.1" xmlns="http://www.w3.org/2000/svg" xmlns:xlink="http://www.w3.org/1999/xlink">
    <!-- Generator: Sketch 59.1 (86144) - https://sketch.com -->
    <title>ic_search_22dp</title>
    <desc>Created with Sketch.</desc>
    <g id="Page-1" stroke="none" stroke-width="1" fill="none" fill-rule="evenodd">
        <g id="Menus--" transform="translate(-53.000000, -294.000000)" fill="#4F566B" fill-rule="nonzero">
            <g id="Group-3" transform="translate(53.000000, 294.000000)">
                <g id="magnifying-glass" transform="translate(1.636364, 1.636364)">
                    <path d="M10.8076594,9.50609208 C11.5323711,8.51643356 11.9658555,7.3008204 11.9658555,5.98299918 C11.9658555,2.68411843 9.28179424,5.71313906e-05 5.98291348,5.71313906e-05 C2.68403273,5.71313906e-05 0,2.68411843 0,5.98299918 C0,9.28187993 2.68406129,11.9659412 5.98294205,11.9659412 C7.30076327,11.9659412 8.51649069,11.5323997 9.50614921,10.807688 L13.4257054,14.7272442 L14.7272727,13.4256768 C14.7272727,13.4256483 10.8076594,9.50609208 10.8076594,9.50609208 L10.8076594,9.50609208 Z M5.98294205,10.125025 C3.69888618,10.125025 1.84091623,8.26705504 1.84091623,5.98299918 C1.84091623,3.69894332 3.69888618,1.84097336 5.98294205,1.84097336 C8.26699791,1.84097336 10.1249679,3.69894332 10.1249679,5.98299918 C10.1249679,8.26705504 8.26696935,10.125025 5.98294205,10.125025 Z" id="Shape"></path>
                </g>
            </g>
        </g>
    </g>
</svg>