<?xml version="1.0" encoding="UTF-8"?>
<svg width="18px" height="18px" viewBox="0 0 18 18" version="1.1" xmlns="http://www.w3.org/2000/svg" xmlns:xlink="http://www.w3.org/1999/xlink">
    <!-- Generator: Sketch 59.1 (86144) - https://sketch.com -->
    <title>ic_setting_22dp</title>
    <desc>Created with Sketch.</desc>
    <g id="Page-1" stroke="none" stroke-width="1" fill="none" fill-rule="evenodd">
        <g id="Menus--" transform="translate(-53.000000, -211.000000)" fill="#4F566B" fill-rule="nonzero">
            <g id="Group-3" transform="translate(53.000000, 211.000000)">
                <g id="settings" transform="translate(2.000000, 1.000000)">
                    <path d="M7.53845847,9.86397648 C7.56389098,9.79496696 7.5922871,9.72719731 7.62276983,9.65988128 C7.47050737,9.439577 7.38870599,9.17868957 7.38870599,8.90534292 C7.38870599,8.54922718 7.52778346,8.2146429 7.7782983,7.96476311 C8.02993205,7.71240358 8.36475826,7.57362852 8.72114616,7.57362852 C8.99428113,7.57362852 9.25468471,7.65536942 9.4749285,7.80714803 C9.54242598,7.77705843 9.61010491,7.74884376 9.67947732,7.72292738 C9.79405973,7.10420049 10.3373661,6.63407691 10.988995,6.63407691 C11.1392313,6.63407691 11.2831473,6.66150532 11.4181725,6.70774351 C11.6614598,6.52493784 11.821101,6.23659175 11.821101,5.90890237 C11.821101,5.35525369 11.3721762,4.90641964 10.8186485,4.90641964 L10.2082076,4.90641964 C10.0970726,4.42991525 9.90915624,3.98425649 9.65800635,3.58090461 L10.0908128,3.14843084 C10.4823102,2.75708456 10.4823102,2.12217883 10.0908128,1.73083256 C9.69916408,1.33930483 9.06386522,1.33930483 8.67312376,1.73083256 L8.24052903,2.16330633 C7.83708643,1.91194475 7.39127646,1.72405861 6.915014,1.61313534 L6.915014,1.00248273 C6.915014,0.448834049 6.46560538,0 5.9124103,0 C5.35845921,0 4.90992757,0.44886429 4.90992757,1.00248273 L4.90992757,1.61307486 C4.43318126,1.72399813 3.98722009,1.9119145 3.58395893,2.16324585 L3.15178757,1.73104424 C2.7605925,1.33948628 2.12532388,1.33948628 1.7341288,1.73104424 C1.34248012,2.12242076 1.34248012,2.75729625 1.7341288,3.14861228 L2.16630017,3.58084413 C1.91530147,3.98419601 1.72720366,4.42985477 1.61673399,4.90635916 L1.0057185,4.90635916 C0.452039574,4.90635916 0.00326600709,5.35522345 0.00326600709,5.90884189 C0.00326600709,6.46246033 0.452069815,6.91132462 1.0057185,6.91132462 L1.61667351,6.91132462 C1.72714318,7.38788949 1.91524099,7.83375994 2.16687474,8.23711182 L1.73403808,8.66958559 C1.3423894,9.06093186 1.3423894,9.69580735 1.73403808,10.0871839 C1.92981706,10.2829931 2.18628934,10.3808826 2.4428221,10.3808826 C2.69929438,10.3808826 2.9557969,10.2829931 3.15169685,10.0871839 L3.58435206,9.6547101 C3.98761322,9.90582976 4.43309054,10.0937764 4.90983685,10.2046694 L4.90983685,10.8152615 C4.90983685,11.36888 5.35833825,11.8177443 5.91231958,11.8177443 C6.14338958,11.8177443 6.35389584,11.7362453 6.52327459,11.6045466 C6.47727833,11.468977 6.44933582,11.3246074 6.44933582,11.1735848 C6.44933582,10.5223188 6.91930819,9.97852865 7.53845847,9.86397648 Z M5.91231958,7.91504723 C4.80420571,7.91504723 3.90556991,7.0168348 3.90556991,5.90887213 C3.90556991,4.80087922 4.80423595,3.90269703 5.91231958,3.90269703 C7.0201008,3.90269703 7.91831324,4.80087922 7.91831324,5.90887213 C7.91831324,7.0168348 7.0201008,7.91504723 5.91231958,7.91504723 Z" id="Shape"></path>
                    <path d="M14.1966071,10.6471529 L13.8245544,10.6471529 C13.7501318,10.2421378 13.5920631,9.86666791 13.3672832,9.54015792 L13.6297734,9.27806085 C13.8352597,9.07245361 13.8352597,8.73889752 13.6297734,8.53329027 C13.5269546,8.43029009 13.3918085,8.37888072 13.2572671,8.37888072 C13.1226048,8.37888072 12.9875796,8.43029009 12.8847609,8.53329027 L12.6223009,8.79568975 C12.296426,8.57051671 11.9204723,8.4126597 11.5151548,8.33775322 L11.5151548,7.96600299 C11.5151548,7.67523763 11.2796998,7.43957103 10.988995,7.43957103 C10.6982901,7.43957103 10.4628352,7.67523763 10.4628352,7.96600299 L10.4628352,8.33775322 C10.0575176,8.41268994 9.68204779,8.57051671 9.35550756,8.79547807 L9.09322905,8.53362292 C8.9904103,8.43080418 8.85568751,8.37915288 8.7211764,8.37915288 C8.58596976,8.37915288 8.45100504,8.43080418 8.34867015,8.53362292 C8.14257906,8.73892776 8.14257906,9.07248385 8.34867015,9.2780911 L8.61049505,9.54018817 C8.38586634,9.86672839 8.22779765,10.242168 8.15340526,10.6471831 L7.78135262,10.6471831 C7.49064775,10.6471831 7.25470898,10.88288 7.25470898,11.1736453 C7.25470898,11.4646526 7.49064775,11.7003494 7.78135262,11.7003494 L8.15340526,11.7003494 C8.22779765,12.1053646 8.38589658,12.4805925 8.61097891,12.8072839 L8.34867015,13.0696834 C8.14257906,13.2752302 8.14257906,13.6086048 8.34867015,13.8141516 C8.45148889,13.9169703 8.586,13.9685914 8.7211764,13.9685914 C8.85565727,13.9685914 8.99038006,13.9169703 9.09322905,13.8141516 L9.35550756,13.5520847 C9.68204779,13.7767135 10.0575176,13.9346007 10.4628352,14.0094769 L10.4628352,14.3812574 C10.4628352,14.6722345 10.6982901,14.9079615 10.988995,14.9079615 C11.2796998,14.9079615 11.5151548,14.6722345 11.5151548,14.3812574 L11.5151548,14.0097189 C11.9204723,13.934631 12.2958212,13.7767135 12.6223009,13.5518126 L12.8847609,13.8143935 C12.9875796,13.9172122 13.1226048,13.9686216 13.2572671,13.9686216 C13.3918085,13.9686216 13.5269546,13.9172425 13.6297734,13.8143935 C13.8352597,13.6088467 13.8352597,13.2752302 13.6297734,13.0696834 L13.3672832,12.8072839 C13.5920933,12.4805623 13.7501318,12.1053646 13.8245544,11.7003494 L14.1966071,11.7003494 C14.4873119,11.7003494 14.7232507,11.4646526 14.7232507,11.1736453 C14.7232507,10.8828497 14.4873119,10.6471529 14.1966071,10.6471529 Z M10.9889345,12.2607721 C10.3883521,12.2607721 9.90174725,11.7740161 9.90174725,11.1736453 C9.90174725,10.5732444 10.3883521,10.0864581 10.9889345,10.0864581 C11.5895169,10.0864581 12.0759705,10.5732746 12.0759705,11.1736453 C12.0760007,11.7740161 11.5895471,12.2607721 10.9889345,12.2607721 Z" id="Shape"></path>
                </g>
            </g>
        </g>
    </g>
</svg>