<?xml version="1.0" encoding="UTF-8"?>
<svg width="18px" height="18px" viewBox="0 0 18 18" version="1.1" xmlns="http://www.w3.org/2000/svg" xmlns:xlink="http://www.w3.org/1999/xlink">
    <!-- Generator: Sketch 59.1 (86144) - https://sketch.com -->
    <title>ic_Types_22dp</title>
    <desc>Created with Sketch.</desc>
    <g id="Page-1" stroke="none" stroke-width="1" fill="none" fill-rule="evenodd">
        <g id="Menus--" transform="translate(-53.000000, -513.000000)" fill="#4F566B" fill-rule="nonzero">
            <g id="Group-2" transform="translate(53.000000, 513.000000)">
                <g id="layers" transform="translate(1.636364, 1.636364)">
                    <path d="M14.4925607,6.92637809 C14.4777102,6.9164264 14.4623975,6.90724496 14.4465919,6.89886459 L13.4017874,6.33623963 L7.60768391,9.40391822 C7.45375618,9.48544199 7.2694496,9.48544199 7.11552187,9.40391822 L1.32144922,6.33623963 L0.276613922,6.89886459 C0.0226763028,7.03365919 -0.0739444656,7.34878585 0.0608501331,7.60272347 C0.0692305059,7.61849829 0.0784119437,7.63384176 0.0883636364,7.64869228 L7.36160289,11.4993195 L14.6348421,7.64869228 C14.7950243,7.40994409 14.7313397,7.08656029 14.4925607,6.92637809 Z" id="Path"></path>
                    <path d="M14.6595827,10.2667885 C14.6108718,10.1765455 14.5368349,10.1025086 14.4466227,10.0538285 L13.4018182,9.4912035 L7.60771472,12.5588821 C7.45378699,12.6404059 7.26948041,12.6404059 7.11555268,12.5588821 L1.32144922,9.4912035 L0.276613922,10.0538285 C0.0210433625,10.1917657 -0.0742833777,10.5107436 0.0636538608,10.7663142 C0.112364777,10.8565572 0.186401674,10.9305941 0.276613922,10.9792742 L7.11237923,14.6600757 C7.26797071,14.7438486 7.45526588,14.7438486 7.61085736,14.6600757 L14.4466227,10.9792742 C14.7021624,10.841337 14.79752,10.5223591 14.6595827,10.2667885 Z" id="Path"></path>
                    <path d="M14.4925607,3.77141423 C14.4777102,3.76146253 14.4623975,3.7522811 14.4465919,3.74390072 L7.61085736,0.0630992773 C7.45526588,-0.0206736402 7.26797071,-0.0206736402 7.11237923,0.0630992773 L0.276613922,3.74390072 C0.0226763028,3.87869532 -0.0739444656,4.19382199 0.0608501331,4.4477596 C0.0692305059,4.46353442 0.0784119437,4.4788779 0.0883636364,4.49372841 L7.36160289,8.34435565 L14.6348421,4.49372841 C14.7950243,4.25498022 14.7313397,3.93159642 14.4925607,3.77141423 Z" id="Path"></path>
                </g>
            </g>
        </g>
    </g>
</svg>