<?xml version="1.0" encoding="UTF-8"?>
<svg width="17px" height="24px" viewBox="0 0 17 24" version="1.1" xmlns="http://www.w3.org/2000/svg" xmlns:xlink="http://www.w3.org/1999/xlink">
    <!-- Generator: Sketch 59.1 (86144) - https://sketch.com -->
    <title>Group 2</title>
    <desc>Created with Sketch.</desc>
    <g id="Page-1" stroke="none" stroke-width="1" fill="none" fill-rule="evenodd">
        <g id="voice---note-5---" transform="translate(-312.000000, -147.000000)" fill="#4A4A4A" fill-rule="nonzero">
            <g id="Group-2" transform="translate(308.000000, 147.000000)">
                <g id="Group-140" transform="translate(0.000000, 10.560000)">
                    <g id="unlock">
                        <path d="M19.1616054,0 L18.2670677,0 L16.1098685,0 L12.2211005,0 L8.33264875,0 L6.17544955,0 L5.28068598,0 C4.57334979,0 4,0.550459161 4,1.22950191 L4,1.97741167 L4,10.5098539 L4,11.2577637 C4,11.9368064 4.57334979,12.4872222 5.28068598,12.4872222 L12.2211457,12.4872222 L19.1616505,12.4872222 C19.8688964,12.4872222 20.4423365,11.9368064 20.4423365,11.2577637 L20.4423365,10.5098539 L20.4423365,1.97741167 L20.4423365,1.22950191 C20.4423365,0.550415794 19.8688964,0 19.1616054,0 Z M13.5041355,8.65603862 L10.9380655,8.65603862 L11.3973958,6.55511731 C10.9679255,6.29274609 10.6810248,5.83461558 10.6810248,5.3096563 C10.6810248,4.49313971 11.3705172,3.83118362 12.2211005,3.83118362 C13.071729,3.83118362 13.7611762,4.49309634 13.7611762,5.3096563 C13.7611762,5.83457221 13.4743206,6.29274609 13.0448955,6.55507395 L13.5041355,8.65603862 Z" id="Shape"></path>
                    </g>
                </g>
                <g id="unlock">
                    <path d="M18.0916181,10.5874185 L18.0916181,6.76399838 C18.0916181,3.56371997 15.379455,0.96 12.0458316,0.96 C8.71216313,0.96 6,3.56376334 6,6.76404174 L6,6.8262736 L8.15719921,6.8262736 L8.15719921,6.76404174 C8.15719921,5.73476594 8.59326488,4.801505 9.2973937,4.12554132 C9.47339203,3.95658293 9.6662403,3.80362701 9.87309254,3.66936233 C10.2869777,3.40078961 10.7572402,3.20659154 11.2630999,3.10697721 C11.5158942,3.05714836 11.7777233,3.0309546 12.0456509,3.0309546 C14.1901111,3.0309546 15.9344189,4.70549014 15.9344189,6.76404174 L15.9344189,10.5874185 L18.0916181,10.5874185 Z" id="Shape"></path>
                </g>
            </g>
        </g>
    </g>
</svg>