<?xml version="1.0" encoding="UTF-8"?>
<svg width="124px" height="34px" viewBox="0 0 124 34" version="1.1" xmlns="http://www.w3.org/2000/svg" xmlns:xlink="http://www.w3.org/1999/xlink">
    <!-- Generator: Sketch 59.1 (86144) - https://sketch.com -->
    <title>Group 35</title>
    <desc>Created with Sketch.</desc>
    <g id="Page-1" stroke="none" stroke-width="1" fill="none" fill-rule="evenodd">
        <g id="Menus--" transform="translate(-58.000000, -86.000000)">
            <g id="Group-35" transform="translate(48.000000, 83.000000)">
                <g id="Logo-Copy-2" transform="translate(9.388489, 2.086331)">
                    <g id="logo">
                        <g fill="#2ED473" id="icon">
                            <g transform="translate(0.992370, 0.968503)">
                                <path d="M26.0872928,8.50815294e-05 L3.4694167,8.50815294e-05 C1.55325673,8.50815294e-05 0,1.51983027 0,3.39464904 L0,25.5245439 C0,27.4040894 1.55721814,28.9278051 3.4783057,28.9278051 L11.3116434,28.9278051 L14.0755437,32.7664001 C14.2493624,32.9735264 14.4984477,33.0772313 14.7474365,33.0772313 C14.9941063,33.0772313 15.2407761,32.9756061 15.4145948,32.7719777 L18.2682548,28.9278051 L26.0872928,28.9278051 C28.0083803,28.9278051 29.5655985,27.4040894 29.5655985,25.5245439 L29.5655985,3.40334626 C29.5655985,1.5237062 28.0083803,8.50815294e-05 26.0872928,8.50815294e-05 M26.0872928,2.55253097 C26.5668159,2.55253097 26.9568692,2.93416889 26.9568692,3.40334626 L26.9568692,25.5245439 C26.9568692,25.9937213 26.5668159,26.3753592 26.0872928,26.3753592 L18.2682548,26.3753592 L16.938769,26.3753592 L16.1575996,27.4278177 L14.7691759,29.2980043 L13.4442313,27.4577853 L12.6648975,26.3753592 L11.3116434,26.3753592 L3.4783057,26.3753592 C2.99878261,26.3753592 2.60872928,25.9937213 2.60872928,25.5245439 L2.60872928,3.39464904 C2.60872928,2.93029296 2.99482121,2.55253097 3.4694167,2.55253097 L26.0872928,2.55253097" id="Fill-3"></path>
                                <path d="M14.6665562,9.77763554 C14.1340856,9.77763554 13.6726303,9.8511838 13.2820939,9.99846938 C12.8910744,10.1456604 12.587399,10.325277 12.3714541,10.5376972 C12.3878795,10.6360136 12.412904,10.7504956 12.4463343,10.8809539 C12.4794749,10.9953413 12.5044027,11.1345914 12.5212145,11.2977589 C12.5375432,11.4614935 12.5461424,11.6413937 12.5461424,11.8373648 L12.5461424,20.3217895 L9.30320203,20.3217895 L9.30320203,12.0231262 C9.30320203,11.6654056 9.28204234,11.3358565 9.24078577,11.0345733 C9.1990461,10.7337629 9.11991465,10.4732243 9.00377789,10.2535249 C8.88735126,10.0338255 8.71266302,9.86725475 8.48000302,9.7532455 C8.24685992,9.63951986 8.15420172,9.5824207 7.7883999,9.5824207 L7.332452,9.5824207 L7.332452,8.8500578 L9.80204904,8.8500578 C10.3672737,8.8500578 10.8123036,8.91944651 11.1367522,9.05765673 C11.460911,9.19605602 11.7142476,9.42795045 11.897535,9.7532455 C12.0472954,9.6231653 12.2256552,9.48883102 12.433967,9.35043173 C12.6416026,9.21241058 12.8910744,9.09027132 13.1822858,8.98429755 C13.4729176,8.87870191 13.8097335,8.7890827 14.192637,8.71591259 C14.5749608,8.64264794 15.0239521,8.60596834 15.5396109,8.60596834 C17.1027229,8.60596834 18.2837043,8.96000204 19.0819754,9.66778583 C19.8802466,10.3755696 20.2794788,11.5189708 20.2794788,13.0970441 L20.2794788,20.3217895 L17.0363452,20.3217895 L17.0363452,13.0390942 C17.0363452,11.8457785 16.8118978,11.0037549 16.3629066,10.5132126 C15.9138186,10.0228594 15.3483041,9.77763554 14.6665562,9.77763554" id="Fill-5"></path>
                            </g>
                        </g>
                        <g id="text" transform="translate(36.197466, 4.049322)" fill="#000000">
                            <path d="M3.57698958,6.22601243 L3.66880353,7.80037361 C4.16688685,7.22083514 4.76558417,6.771883 5.46518883,6.45253111 C6.16450015,6.13374269 6.94227867,5.97413717 7.79911104,5.97413717 C8.48111559,5.97413717 9.0993197,6.06443473 9.6546034,6.24488898 C10.2097404,6.4254841 10.6839169,6.71708464 11.0772795,7.12025409 C11.4704955,7.52314179 11.7742442,8.04816364 11.988819,8.69433353 C12.2026604,9.34092604 12.3097278,10.1259936 12.3097278,11.0495362 L12.3097278,19.8527734 L9.12351987,19.8527734 L9.12351987,11.0244613 C9.12351987,10.5542379 9.06866617,10.1575484 8.95954544,9.8341113 C8.85013138,9.51095592 8.69085032,9.2486563 8.48111559,9.04707158 C8.27123419,8.84562773 8.01089912,8.70067268 7.70084372,8.61248816 C7.39034832,8.52444452 7.03409261,8.4802114 6.63222327,8.4802114 C5.9766189,8.4802114 5.40622844,8.63150559 4.9209052,8.93367137 C4.43587531,9.23597802 4.04911273,9.64337356 3.76047081,10.1554354 L3.76047081,19.8527734 L0.574116247,19.8527734 L0.574116247,6.22601243 L3.57698958,6.22601243 Z" id="Fill-7"></path>
                            <path d="M18.3218707,17.4406495 C18.6758254,17.4406495 19.0060418,17.3954067 19.3136504,17.3046442 C19.620835,17.2138817 19.898912,17.0943408 20.1474574,16.9457449 C20.3958615,16.7974257 20.6126146,16.6264159 20.797858,16.4325771 C20.9831013,16.2388767 21.1304765,16.0428242 21.2399834,15.844973 L21.2399834,13.3216098 L19.5850863,13.3216098 C18.4484749,13.3216098 17.5934729,13.5154486 17.0209283,13.9029878 C16.448101,14.2906654 16.1618287,14.838976 16.1618287,15.5479196 C16.1618287,15.820207 16.2080335,16.0717409 16.3007259,16.3026595 C16.3934182,16.5335781 16.5323154,16.733643 16.7175587,16.902439 C16.9028021,17.0716502 17.1283157,17.2036432 17.3936758,17.2984181 C17.6587532,17.3933313 17.9681986,17.4406495 18.3218707,17.4406495 L18.3218707,17.4406495 Z M21.6948258,19.6053903 C21.6104701,19.4487696 21.5410922,19.2632323 21.4864093,19.0486399 C21.4315852,18.8343242 21.3831196,18.6032672 21.3411537,18.3558841 C21.1390957,18.5620367 20.9137234,18.7561522 20.6653192,18.9372621 C20.4169151,19.1189255 20.1430771,19.2774831 19.8440878,19.4134885 C19.5452399,19.5496322 19.2208167,19.6567209 18.8715249,19.7351696 C18.5219505,19.8133415 18.149203,19.8527734 17.753565,19.8527734 C17.0713721,19.8527734 16.4440033,19.7516341 15.8713174,19.5496322 C15.2984901,19.3476303 14.8080403,19.0671798 14.3995441,18.7084189 C13.9910479,18.3497964 13.6711463,17.9273911 13.4394155,17.4406495 C13.207826,16.9541847 13.0921019,16.426351 13.0921019,15.8574252 C13.0921019,15.1399034 13.2311403,14.5049811 13.5089347,13.9525198 C13.7868704,13.4001968 14.1912689,12.9382213 14.7217064,12.5670082 C15.2522852,12.1959335 15.9029684,11.913546 16.6734734,11.7197072 C17.4439783,11.5261451 18.3218707,11.4290182 19.3074332,11.4290182 L21.2399834,11.4290182 L21.2399834,10.5508634 C21.2399834,9.85810763 21.0421644,9.30357095 20.6463851,8.88725337 C20.2504646,8.47079743 19.6485296,8.26243111 18.8398739,8.26243111 C18.4778651,8.26243111 18.149203,8.31002607 17.854594,8.40466257 C17.5597024,8.49971414 17.3091788,8.62741807 17.1030232,8.78818943 C16.8965849,8.9489608 16.7366341,9.14072423 16.6228882,9.36334137 C16.5092836,9.58595851 16.4524813,9.82531691 16.4524813,10.0808631 L13.3827545,10.0808631 C13.3827545,9.5531678 13.5152932,9.04401237 13.7805119,8.55312012 C14.045872,8.06264294 14.4227172,7.62543339 14.9111888,7.24204488 C15.3995191,6.85865638 15.9914217,6.55136447 16.686049,6.32044588 C17.3809588,6.08980401 18.157681,5.97413717 19.0167806,5.97413717 C19.7830466,5.97413717 20.490532,6.07112575 21.1390957,6.26482619 C21.7873768,6.45866498 22.3473458,6.74714027 22.8191441,7.13066713 C23.2908011,7.514194 23.6570489,7.99249571 23.9181699,8.56557229 C24.1790084,9.13878722 24.3098515,9.80871402 24.3098515,10.5756294 L24.3098515,16.5129628 C24.3098515,17.7170877 24.4823779,18.6775652 24.8277134,19.3949486 L24.8277134,19.6053903 L21.6948258,19.6053903 Z" id="Fill-9"></path>
                            <path d="M28.6129233,6.22601243 L28.7047361,7.80037361 C29.2029598,7.22083514 29.801503,6.771883 30.5010989,6.45253111 C31.2005482,6.13374269 31.978317,5.97413717 32.8351386,5.97413717 C33.516988,5.97413717 34.1351844,6.06443473 34.6904611,6.24488898 C35.2455912,6.4254841 35.7197618,6.71708464 36.1131195,7.12025409 C36.5064772,7.52314179 36.8102221,8.04816364 37.0246475,8.69433353 C37.2386329,9.34092604 37.345699,10.1259936 37.345699,11.0495362 L37.345699,19.8527734 L34.1593842,19.8527734 L34.1593842,11.0244613 C34.1593842,10.5542379 34.1046779,10.1575484 33.9955585,9.8341113 C33.8861458,9.51095592 33.7267201,9.2486563 33.516988,9.04707158 C33.3072559,8.84562773 33.0467774,8.70067268 32.7367259,8.61248816 C32.426381,8.52444452 32.0699831,8.4802114 31.6681188,8.4802114 C31.0125226,8.4802114 30.4421393,8.63150559 29.9569688,8.93367137 C29.4717983,9.23597802 29.0850405,9.64337356 28.7965489,10.1554354 L28.7965489,19.8527734 L25.6100875,19.8527734 L25.6100875,6.22601243 L28.6129233,6.22601243 Z" id="Fill-11"></path>
                            <path d="M41.1364018,13.0640208 C41.1364018,13.6587451 41.191927,14.2182737 41.3035312,14.7426065 C41.4148585,15.2672165 41.5922344,15.7276706 41.8357974,16.1239686 C42.0790835,16.5204053 42.3906337,16.8321783 42.770448,17.059149 C43.149847,17.2865354 43.6121875,17.3998822 44.1569157,17.3998822 C44.8334642,17.3998822 45.3885775,17.2493998 45.8219784,16.9477421 C46.2552409,16.6465001 46.5996077,16.2478464 46.8556328,15.7521967 L46.8556328,10.0290149 C46.5996077,9.53350371 46.2530254,9.14122402 45.815609,8.85217584 C45.3781925,8.56326622 44.8334642,8.41846499 44.1815628,8.41846499 C43.636973,8.41846499 43.172694,8.53430597 42.7890026,8.76557223 C42.4051727,8.99669993 42.0914071,9.31041282 41.8482594,9.70684948 C41.6046964,10.1034247 41.425105,10.5677586 41.3096238,11.1005439 C41.1938655,11.6333293 41.1364018,12.2011718 41.1364018,12.8039329 L41.1364018,13.0640208 Z M38.1280731,12.8039329 C38.1280731,11.7879687 38.2497854,10.8590238 38.4933484,10.016544 C38.7366345,9.17434124 39.0876477,8.45158221 39.5455573,7.848544 C40.0036053,7.24606005 40.5585801,6.77937055 41.21062,6.44875263 C41.862383,6.11855042 42.5970877,5.95338002 43.4140415,5.95338002 C44.1569157,5.95338002 44.8108942,6.08127622 45.3762539,6.33734576 C45.9414752,6.59355386 46.4346938,6.96103027 46.8556328,7.43977499 L46.8556328,0.576889755 L49.8636846,0.576889755 L49.8636846,19.6050178 L47.1403204,19.6050178 L46.9916071,18.2174202 C46.5624986,18.7377347 46.0528025,19.1405454 45.4629341,19.425298 C44.8726503,19.7103278 44.1815628,19.8527734 43.3893944,19.8527734 C42.5804716,19.8527734 41.852275,19.681229 41.204389,19.3386944 C40.5565031,18.9961598 40.0055438,18.5232349 39.5519267,17.9201967 C39.0977558,17.3174356 38.747158,16.600912 38.4995794,15.7709031 C38.2518624,14.9408941 38.1280731,14.0385539 38.1280731,13.0640208 L38.1280731,12.8039329 Z" id="Fill-13"></path>
                            <path d="M60.1620557,12.7790419 C60.1620557,12.1930515 60.1146617,11.6353283 60.0200119,11.1068423 C59.9253621,10.5783562 59.762592,10.1156885 59.531978,9.71939324 C59.3013641,9.32295944 58.9947539,9.0068932 58.611733,8.77161022 C58.2288503,8.53618868 57.7489687,8.41840862 57.1726411,8.41840862 C56.4726469,8.41840862 55.9003263,8.57332403 55.4555412,8.88315486 C55.0108943,9.19284712 54.6690495,9.60771004 54.4302832,10.1281593 L54.4302832,15.6531524 C54.6690495,16.1734631 55.0126905,16.5945614 55.4616209,16.9167245 C55.9104131,17.2388876 56.4889515,17.3998998 57.1973744,17.3998998 C57.7489687,17.3998998 58.2143419,17.2864153 58.5932175,17.0591691 C58.9720932,16.8322 59.2788416,16.5225077 59.5136008,16.1302309 C59.74836,15.737954 59.9149989,15.2775033 60.0139322,14.7487401 C60.1127273,14.2202541 60.1620557,13.6504758 60.1620557,13.0392666 L60.1620557,12.7790419 Z M63.1640443,13.0392666 C63.1640443,14.0302818 63.0506027,14.9430079 62.8242721,15.7770293 C62.5976653,16.6111892 62.2661836,17.3299246 61.8298272,17.9324043 C61.3931944,18.5355767 60.8496142,19.0061427 60.1992248,19.344795 C59.548559,19.6833087 58.7990982,19.8527734 57.9508423,19.8527734 C57.1356102,19.8527734 56.4273255,19.7060333 55.8261264,19.4128303 C55.2249272,19.1199043 54.7143709,18.7006073 54.2943191,18.1554935 L54.1460574,19.6050196 L51.4284328,19.6050196 L51.4284328,0.576889755 L54.4302832,0.576889755 L54.4302832,7.48947041 C54.850335,6.99396279 55.3462448,6.61429532 55.9188417,6.34991374 C56.4911623,6.0853936 57.1602053,5.95334137 57.926109,5.95334137 C58.7909459,5.95334137 59.548559,6.12058905 60.1992248,6.4550844 C60.8496142,6.78944119 61.395267,7.25834437 61.8359069,7.86110112 C62.2765467,8.46399643 62.6080284,9.1846718 62.83049,10.0228501 C63.0526753,10.8611669 63.1640443,11.7799899 63.1640443,12.7790419 L63.1640443,13.0392666 Z" id="Fill-15"></path>
                            <path d="M66.970276,13.0494607 C66.970276,13.6515923 67.0324902,14.2205182 67.1569185,14.7563766 C67.2812075,15.2926501 67.4762008,15.760575 67.7417592,16.160428 C68.0071783,16.5605578 68.3451111,16.8758744 68.7556965,17.1066546 C69.166282,17.3377116 69.6535565,17.4531017 70.2179375,17.4531017 C70.7735502,17.4531017 71.2569276,17.3377116 71.667513,17.1066546 C72.0780985,16.8758744 72.4140827,16.5605578 72.6754656,16.160428 C72.9365701,15.760575 73.1315634,15.2926501 73.2601671,14.7563766 C73.3887709,14.2205182 73.4530727,13.6515923 73.4530727,13.0494607 L73.4530727,12.7896254 C73.4530727,12.1959335 73.3887709,11.6332338 73.2601671,11.1012494 C73.1315634,10.5694033 72.9346216,10.1036921 72.6690632,9.70356235 C72.4035049,9.30370931 72.0657114,8.98424195 71.6551259,8.74502191 C71.2444012,8.50580187 70.7571267,8.38626103 70.1930241,8.38626103 C69.6287822,8.38626103 69.145544,8.50580187 68.7433094,8.74502191 C68.3409356,8.98424195 68.0071783,9.30370931 67.7417592,9.70356235 C67.4762008,10.1036921 67.2812075,10.5694033 67.1569185,11.1012494 C67.0324902,11.6332338 66.970276,12.1959335 66.970276,12.7896254 L66.970276,13.0494607 Z M63.9464184,12.7896254 C63.9464184,11.8168341 64.0896362,10.915712 64.3756542,10.0870892 C64.6620898,9.25832806 65.0726752,8.5388693 65.607689,7.92843621 C66.1428419,7.31827984 66.7960208,6.83997812 67.5675039,6.49366941 C68.3389871,6.14736071 69.2140213,5.97413717 70.1930241,5.97413717 C71.1800994,5.97413717 72.0636236,6.14736071 72.8433185,6.49366941 C73.6230134,6.83997812 74.2805068,7.31827984 74.8156598,7.92843621 C75.3506735,8.5388693 75.7591713,9.25832806 76.0412922,10.0870892 C76.323274,10.915712 76.464404,11.8168341 76.464404,12.7896254 L76.464404,13.0494607 C76.464404,14.0225286 76.323274,14.9257261 76.0412922,15.7583613 C75.7591713,16.5914115 75.3506735,17.3107319 74.8156598,17.9168759 C74.2805068,18.5230199 73.6251011,18.9973093 72.8495817,19.3394672 C72.0739231,19.6814869 71.1965228,19.8527734 70.2179375,19.8527734 C69.2305839,19.8527734 68.3491473,19.6814869 67.5736279,19.3394672 C66.7979693,18.9973093 66.1428419,18.5230199 65.607689,17.9168759 C65.0726752,17.3107319 64.6620898,16.5914115 64.3756542,15.7583613 C64.0896362,14.9257261 63.9464184,14.0225286 63.9464184,13.0494607 L63.9464184,12.7896254 Z" id="Fill-17"></path>
                            <polygon id="Fill-19" points="81.9088001 10.5403294 84.5698402 5.97413717 88.0578314 5.97413717 83.781903 12.8107999 88.2000155 19.8527734 84.7377446 19.8527734 81.947525 15.1068087 79.1700211 19.8527734 75.6820299 19.8527734 80.1001425 12.8107999 75.8370742 5.97413717 79.2992006 5.97413717"></polygon>
                        </g>
                    </g>
                </g>
            </g>
        </g>
    </g>
</svg>